<svg width="85" height="50" viewBox="0 0 85 50" fill="none" xmlns="http://www.w3.org/2000/svg">
<path fill-rule="evenodd" clip-rule="evenodd" d="M47.0306 48.017C45.8351 49.2122 44.2139 49.8835 42.5235 49.8835C40.8331 49.8835 39.2119 49.2122 38.0164 48.017L1.95302 11.9537C1.34414 11.3656 0.858479 10.6621 0.524372 9.88436C0.190264 9.10659 0.0144017 8.27006 0.00704612 7.42359C-0.000309462 6.57712 0.160991 5.73767 0.481531 4.9542C0.802072 4.17074 1.27544 3.45895 1.874 2.86039C2.47257 2.26182 3.18435 1.78846 3.96781 1.46792C4.75127 1.14738 5.59073 0.986079 6.4372 0.993435C7.28367 1.00079 8.12019 1.17665 8.89797 1.51076C9.67575 1.84487 10.3792 2.33053 10.9673 2.9394L42.5235 34.4957L74.0798 2.9394C75.2821 1.77815 76.8924 1.13558 78.5639 1.15011C80.2354 1.16463 81.8344 1.83508 83.0164 3.01706C84.1983 4.19904 84.8688 5.79797 84.8833 7.46947C84.8978 9.14098 84.2553 10.7513 83.094 11.9537L47.0306 48.017Z" fill="#C14A4A"/>
</svg>
