<svg width="85" height="50" viewBox="0 0 85 50" fill="none" xmlns="http://www.w3.org/2000/svg">
<path fill-rule="evenodd" clip-rule="evenodd" d="M37.8597 2.85971C39.0552 1.66458 40.6764 0.993195 42.3668 0.993195C44.0572 0.993195 45.6784 1.66458 46.8739 2.85971L82.9373 38.9231C83.5462 39.5112 84.0318 40.2146 84.3659 40.9924C84.7001 41.7702 84.8759 42.6067 84.8833 43.4531C84.8906 44.2996 84.7293 45.1391 84.4088 45.9225C84.0882 46.706 83.6149 47.4178 83.0163 48.0164C82.4178 48.6149 81.706 49.0883 80.9225 49.4088C80.139 49.7294 79.2996 49.8907 78.4531 49.8833C77.6067 49.8759 76.7701 49.7001 75.9924 49.366C75.2146 49.0319 74.5111 48.5462 73.9231 47.9373L42.3668 16.3811L10.8106 47.9373C9.60821 49.0986 7.99788 49.7412 6.32638 49.7266C4.65487 49.7121 3.05594 49.0417 1.87397 47.8597C0.691989 46.6777 0.021532 45.0788 0.00700703 43.4073C-0.00751789 41.7358 0.635046 40.1254 1.7963 38.9231L37.8597 2.85971Z" fill="#41844C"/>
</svg>
