<svg width="99" height="80" viewBox="0 0 99 80" fill="none" xmlns="http://www.w3.org/2000/svg">
<path opacity="0.5" fill-rule="evenodd" clip-rule="evenodd" d="M99 51.2474C99 66.6864 86.3378 79.2 70.7156 79.2H42.07C37.5515 73.1801 34.9697 65.9288 34.6668 58.4079C34.3639 50.887 36.3543 43.4516 40.374 37.0878C44.3937 30.724 50.2529 25.7324 57.1746 22.7749C64.0962 19.8173 71.7534 19.0336 79.1307 20.5277C79.5217 21.9186 79.8039 23.3541 79.9722 24.8243C91.0404 28.611 99 39.011 99 51.2474Z" fill="#4A88C1"/>
<path d="M51.8562 0C36.234 0 23.5719 12.5136 23.5719 27.9527C23.5719 31.3682 24.1906 34.6351 25.3242 37.6645C23.9705 37.4013 22.5947 37.2687 21.2157 37.2685C9.49905 37.2735 0 46.6587 0 58.2367C0 69.8148 9.49905 79.2 21.2157 79.2H42.07C37.5516 73.18 34.9697 65.9288 34.6668 58.4079C34.364 50.8869 36.3543 43.4516 40.3741 37.0878C44.3938 30.724 50.253 25.7324 57.1746 22.7748C64.0963 19.8173 71.7534 19.0336 79.1307 20.5277C79.0589 20.2658 78.983 20.005 78.903 19.7455C75.3588 8.316 64.5876 0 51.8562 0Z" fill="#4A88C1"/>
</svg>
