<svg width="77" height="97" viewBox="0 0 77 97" fill="none" xmlns="http://www.w3.org/2000/svg">
<path d="M41.3288 0.906212C40.4858 0.316369 39.4819 0 38.4531 0C37.4243 0 36.4204 0.316369 35.5775 0.906212C29.1146 5.66925 23.2016 11.1365 17.9476 17.207C6.20684 30.6907 0 44.981 0 58.5148C0 68.7132 4.0513 78.4939 11.2627 85.7053C18.474 92.9167 28.2547 96.968 38.4531 96.968C48.6515 96.968 58.4322 92.9167 65.6436 85.7053C72.8549 78.4939 76.9062 68.7132 76.9062 58.5148C76.9063 26.1808 42.7833 1.92188 41.3288 0.906212ZM38.4531 86.9367C30.9176 86.929 23.6928 83.932 18.3644 78.6036C13.0359 73.2751 10.039 66.0504 10.0312 58.5148C10.0313 44.5923 18.3906 32.0282 25.3707 23.9447C29.3559 19.367 33.7333 15.1462 38.4531 11.3304C43.1729 15.1462 47.5504 19.367 51.5355 23.9447C58.5156 32.0282 66.875 44.5923 66.875 58.5148C66.8673 66.0504 63.8703 73.2751 58.5419 78.6036C53.2134 83.932 45.9887 86.929 38.4531 86.9367ZM59.1927 65.0352C58.1428 68.3728 56.3026 71.4077 53.8285 73.8818C51.3544 76.3559 48.3195 78.1962 44.9818 79.2461C44.4946 79.3976 43.9874 79.4751 43.4771 79.476C42.2782 79.4768 41.1185 79.0482 40.2084 78.2677C39.2983 77.4872 38.6979 76.4065 38.5159 75.2214C38.334 74.0364 38.5826 72.8253 39.2167 71.8077C39.8508 70.7902 40.8284 70.0334 41.9724 69.6746C43.7712 69.1095 45.4067 68.1181 46.7399 66.7849C48.0731 65.4517 49.0645 63.8162 49.6296 62.0174C49.8272 61.389 50.1467 60.8056 50.5697 60.3005C50.9928 59.7955 51.5112 59.3788 52.0953 59.0741C53.275 58.4588 54.6508 58.3373 55.92 58.7364C56.5485 58.934 57.1319 59.2534 57.6369 59.6765C58.1419 60.0995 58.5587 60.6179 58.8634 61.2021C59.168 61.7862 59.3547 62.4246 59.4126 63.0808C59.4706 63.7371 59.3987 64.3983 59.2011 65.0268L59.1927 65.0352Z" fill="#4A88C1"/>
</svg>
