<svg width="122" height="139" viewBox="0 0 122 139" fill="none" xmlns="http://www.w3.org/2000/svg">
<path d="M61.1267 5V134M77.7469 18.8214C72.7309 21.8447 66.9833 23.4379 61.1267 23.4286C55.27 23.4379 49.5224 21.8447 44.5064 18.8214M44.5064 120.179C49.5261 117.164 55.2713 115.571 61.1267 115.571C66.9821 115.571 72.7272 117.164 77.7469 120.179M116.985 37.25L5.26794 101.75M113.323 58.558C108.201 55.7177 103.949 51.5373 101.021 46.4648C98.0941 41.3924 96.6021 35.619 96.7053 29.7634M8.93062 80.442C14.0523 83.2823 18.3046 87.4627 21.2319 92.5352C24.1592 97.6076 25.6512 103.381 25.548 109.237M5.26794 37.25L116.985 101.75M8.93062 58.558C14.0523 55.7177 18.3046 51.5373 21.2319 46.4648C24.1592 41.3924 25.6512 35.619 25.548 29.7634M113.323 80.442C108.201 83.2823 103.949 87.4627 101.021 92.5352C98.0941 97.6076 96.6021 103.381 96.7053 109.237" stroke="#4A88C1" stroke-width="9.21429" stroke-linecap="round" stroke-linejoin="round"/>
</svg>
