<svg width="133" height="133" viewBox="0 0 133 133" fill="none" xmlns="http://www.w3.org/2000/svg">
<path d="M62.0667 17.7333V4.43333C62.0667 3.25754 62.5338 2.1299 63.3652 1.29849C64.1966 0.467082 65.3242 0 66.5 0C67.6758 0 68.8034 0.467082 69.6348 1.29849C70.4663 2.1299 70.9333 3.25754 70.9333 4.43333V17.7333C70.9333 18.9091 70.4663 20.0368 69.6348 20.8682C68.8034 21.6996 67.6758 22.1667 66.5 22.1667C65.3242 22.1667 64.1966 21.6996 63.3652 20.8682C62.5338 20.0368 62.0667 18.9091 62.0667 17.7333ZM101.967 66.5C101.967 73.5146 99.8866 80.3718 95.9895 86.2042C92.0923 92.0367 86.5532 96.5825 80.0725 99.2669C73.5918 101.951 66.4607 102.654 59.5808 101.285C52.7009 99.9167 46.3814 96.5388 41.4213 91.5787C36.4612 86.6186 33.0833 80.2991 31.7148 73.4192C30.3463 66.5393 31.0487 59.4082 33.7331 52.9275C36.4175 46.4468 40.9633 40.9077 46.7958 37.0105C52.6282 33.1134 59.4854 31.0333 66.5 31.0333C75.9032 31.0436 84.9183 34.7836 91.5674 41.4326C98.2164 48.0817 101.956 57.0968 101.967 66.5ZM93.1 66.5C93.1 61.239 91.5399 56.0962 88.6171 51.7218C85.6942 47.3475 81.5399 43.9381 76.6794 41.9248C71.8189 39.9115 66.4705 39.3847 61.3106 40.4111C56.1507 41.4375 51.411 43.9709 47.691 47.691C43.9709 51.411 41.4375 56.1507 40.4111 61.3106C39.3847 66.4705 39.9115 71.8189 41.9248 76.6794C43.9381 81.5399 47.3475 85.6942 51.7218 88.6171C56.0962 91.5399 61.239 93.1 66.5 93.1C73.5525 93.0927 80.3141 90.2878 85.3009 85.3009C90.2878 80.3141 93.0927 73.5525 93.1 66.5ZM27.8968 34.1699C28.7286 35.0018 29.8569 35.4691 31.0333 35.4691C32.2098 35.4691 33.338 35.0018 34.1699 34.1699C35.0018 33.338 35.4691 32.2098 35.4691 31.0333C35.4691 29.8569 35.0018 28.7286 34.1699 27.8968L25.3033 19.0301C24.4714 18.1982 23.3431 17.7309 22.1667 17.7309C20.9902 17.7309 19.862 18.1982 19.0301 19.0301C18.1982 19.862 17.7309 20.9902 17.7309 22.1667C17.7309 23.3431 18.1982 24.4714 19.0301 25.3033L27.8968 34.1699ZM27.8968 98.8301L19.0301 107.697C18.1982 108.529 17.7309 109.657 17.7309 110.833C17.7309 112.01 18.1982 113.138 19.0301 113.97C19.862 114.802 20.9902 115.269 22.1667 115.269C23.3431 115.269 24.4714 114.802 25.3033 113.97L34.1699 105.103C34.5818 104.691 34.9086 104.202 35.1315 103.664C35.3544 103.126 35.4691 102.549 35.4691 101.967C35.4691 101.384 35.3544 100.807 35.1315 100.269C34.9086 99.731 34.5818 99.242 34.1699 98.8301C33.758 98.4182 33.269 98.0914 32.7308 97.8685C32.1927 97.6456 31.6159 97.5309 31.0333 97.5309C30.4508 97.5309 29.874 97.6456 29.3358 97.8685C28.7977 98.0914 28.3087 98.4182 27.8968 98.8301ZM101.967 35.4667C102.549 35.4671 103.126 35.3528 103.664 35.1303C104.202 34.9078 104.691 34.5815 105.103 34.1699L113.97 25.3033C114.802 24.4714 115.269 23.3431 115.269 22.1667C115.269 20.9902 114.802 19.862 113.97 19.0301C113.138 18.1982 112.01 17.7309 110.833 17.7309C109.657 17.7309 108.529 18.1982 107.697 19.0301L98.8301 27.8968C98.2094 28.5168 97.7866 29.307 97.6152 30.1675C97.4439 31.0279 97.5317 31.9199 97.8675 32.7304C98.2033 33.5409 98.7721 34.2335 99.5018 34.7206C100.232 35.2077 101.089 35.4674 101.967 35.4667ZM105.103 98.8301C104.271 97.9982 103.143 97.5309 101.967 97.5309C100.79 97.5309 99.662 97.9982 98.8301 98.8301C97.9982 99.662 97.5309 100.79 97.5309 101.967C97.5309 103.143 97.9982 104.271 98.8301 105.103L107.697 113.97C108.109 114.382 108.598 114.709 109.136 114.931C109.674 115.154 110.251 115.269 110.833 115.269C111.416 115.269 111.993 115.154 112.531 114.931C113.069 114.709 113.558 114.382 113.97 113.97C114.382 113.558 114.709 113.069 114.931 112.531C115.154 111.993 115.269 111.416 115.269 110.833C115.269 110.251 115.154 109.674 114.931 109.136C114.709 108.598 114.382 108.109 113.97 107.697L105.103 98.8301ZM22.1667 66.5C22.1667 65.3242 21.6996 64.1966 20.8682 63.3652C20.0368 62.5338 18.9091 62.0667 17.7333 62.0667H4.43333C3.25754 62.0667 2.1299 62.5338 1.29849 63.3652C0.467082 64.1966 0 65.3242 0 66.5C0 67.6758 0.467082 68.8034 1.29849 69.6348C2.1299 70.4663 3.25754 70.9333 4.43333 70.9333H17.7333C18.9091 70.9333 20.0368 70.4663 20.8682 69.6348C21.6996 68.8034 22.1667 67.6758 22.1667 66.5ZM66.5 110.833C65.3242 110.833 64.1966 111.3 63.3652 112.132C62.5338 112.963 62.0667 114.091 62.0667 115.267V128.567C62.0667 129.742 62.5338 130.87 63.3652 131.702C64.1966 132.533 65.3242 133 66.5 133C67.6758 133 68.8034 132.533 69.6348 131.702C70.4663 130.87 70.9333 129.742 70.9333 128.567V115.267C70.9333 114.091 70.4663 112.963 69.6348 112.132C68.8034 111.3 67.6758 110.833 66.5 110.833ZM128.567 62.0667H115.267C114.091 62.0667 112.963 62.5338 112.132 63.3652C111.3 64.1966 110.833 65.3242 110.833 66.5C110.833 67.6758 111.3 68.8034 112.132 69.6348C112.963 70.4663 114.091 70.9333 115.267 70.9333H128.567C129.742 70.9333 130.87 70.4663 131.702 69.6348C132.533 68.8034 133 67.6758 133 66.5C133 65.3242 132.533 64.1966 131.702 63.3652C130.87 62.5338 129.742 62.0667 128.567 62.0667Z" fill="#CE6B33"/>
</svg>
