<svg width="146" height="127" viewBox="0 0 146 127" fill="none" xmlns="http://www.w3.org/2000/svg">
<path d="M44.4267 63.4964H4.53623C2.0413 63.4964 0 65.5377 0 68.0326V77.1051C0 79.6 2.0413 81.6413 4.53623 81.6413H44.852C49.3598 81.6413 53.5842 84.7316 54.3214 89.1828C55.2569 94.8531 50.8908 99.7863 45.3623 99.7863C41.3647 99.7863 37.9626 97.1779 36.7435 93.5773C36.1481 91.7912 34.3052 90.7138 32.434 90.7138H23.1348C20.3563 90.7138 18.1166 93.2087 18.6269 95.9305C21.0651 108.433 32.1222 117.931 45.3339 117.931C61.5226 117.931 74.4509 103.727 72.3245 87.1415C70.5951 73.4194 58.2338 63.4964 44.4267 63.4964ZM4.53623 54.424H99.7971C116.723 54.424 130.076 38.8874 126.391 21.3378C124.236 11.0746 115.929 2.76764 105.666 0.612933C89.9591 -2.67583 75.8684 7.67244 73.09 22.0183C72.5513 24.74 74.8194 27.2066 77.5695 27.2066H86.8688C88.7683 27.2066 90.5828 26.1292 91.1782 24.3431C92.3973 20.7425 95.7995 18.1341 99.7971 18.1341C105.297 18.1341 109.692 23.0673 108.756 28.7376C108.019 33.1887 103.823 36.279 99.2867 36.279H4.53623C2.0413 36.279 0 38.3203 0 40.8153V49.8877C0 52.3827 2.0413 54.424 4.53623 54.424ZM113.406 63.4964H69.0924C74.5643 68.2028 78.5051 74.4968 80.3763 81.6413H113.406C120.919 81.6413 127.014 87.7369 127.014 95.25C127.014 102.763 120.919 108.859 113.406 108.859C108.331 108.859 103.965 106.052 101.612 101.941C100.789 100.523 99.145 99.7863 97.5006 99.7863H87.9178C84.8275 99.7863 82.531 102.848 83.58 105.768C88.6266 120.114 103.568 129.81 120.267 126.266C131.948 123.8 141.559 114.472 144.28 102.82C149.129 82.0666 133.394 63.4964 113.406 63.4964Z" fill="#4A88C1"/>
</svg>
